<svg xmlns="http://www.w3.org/2000/svg" xmlns:xlink="http://www.w3.org/1999/xlink" width="1200px" height="1200px" viewBox="0 0 1200 1200">
  <g id="d5676aa8-be67-4746-942f-8a30bb989290">
<rect style="stroke: rgb(193,193,193); stroke-width: 0; stroke-dasharray: none; stroke-linecap: butt; stroke-dashoffset: 0; stroke-linejoin: miter; stroke-miterlimit: 4; fill: rgb(251,91,15); fill-rule: nonzero; opacity: 0;" x="-600" y="-600" rx="0" ry="0" width="1200" height="1200" transform="matrix(1 0 0 1 600 600)"/>
</g>
<g id="hQpk9gpfKS3lN41-Z7A7E">
<g style="opacity: 0;">
		<g id="Layer_1-2">
<path style="stroke: rgb(193,193,193); stroke-width: 0; stroke-dasharray: none; stroke-linecap: butt; stroke-dashoffset: 0; stroke-linejoin: miter; stroke-miterlimit: 4; fill: rgb(254,254,254); fill-rule: nonzero; opacity: 1;" transform="matrix(1.42401 0 0 1.42463 599.810663 599.876057) matrix(1 0 0 1 0.04 -0.000751)  translate(-298.36, -287.707202)" d="M 364.27 572.68 C 352.34 572.68 340.46 570.68 328.82 568.68 C 318.04 566.86 307.82 565.13 298.33 565.13 C 288.84 565.13 278.63 566.86 267.85 568.68 C 247.95 572.04 227.37 575.52 206.97 568.90 C 185.74 562.00 170.30 546.10 156.68 532.08 C 149.34 524.52 142.41 517.38 135.24 512.16 C 127.92 506.83 118.88 502.37 109.32 497.64 C 91.89 489.03 72.13 479.27 59.18 461.46 C 46.33 443.83 43.26 423.00 40.29 402.90 C 38.72 392.27 37.29 382.22 34.39 373.46 C 31.73 365.26 27.15 356.60 22.30 347.46 C 13.13 330.10 2.72 310.46 2.72 287.72 C 2.72 264.98 13.13 245.32 22.30 228.00 C 27.15 218.83 31.73 210.18 34.39 202.00 C 37.24 193.24 38.72 183.20 40.29 172.57 C 43.29 152.44 46.29 131.63 59.17 113.98 C 72.17 96.18 91.89 86.42 109.32 77.80 C 118.88 73.08 127.92 68.61 135.24 63.29 C 142.41 58.07 149.34 50.93 156.68 43.36 C 170.30 29.36 185.68 13.44 206.97 6.55 C 227.37 -0.07 247.97 3.40 267.85 6.77 C 278.63 8.59 288.85 10.31 298.33 10.31 C 307.81 10.31 318.00 8.53 328.82 6.71 C 348.72 3.34 369.29 -0.14 389.70 6.49 C 410.94 13.38 426.37 29.28 440.00 43.30 C 447.35 50.87 454.28 58.01 461.45 63.23 C 468.62 68.45 477.78 73.00 487.35 77.74 C 504.78 86.36 524.54 96.12 537.49 113.92 C 550.34 131.57 553.41 152.38 556.38 172.51 C 557.95 183.14 559.38 193.18 562.28 201.94 C 564.94 210.15 569.52 218.80 574.37 227.94 C 583.54 245.32 594.00 265.00 594.00 287.70 C 594.00 310.40 583.59 330.08 574.42 347.44 C 569.57 356.60 564.99 365.26 562.33 373.44 C 559.48 382.20 558.00 392.25 556.43 402.88 C 553.43 423.00 550.43 443.81 537.55 461.46 C 524.55 479.27 504.83 489.03 487.40 497.64 C 477.83 502.37 468.80 506.83 461.48 512.16 C 454.16 517.49 447.33 524.54 440.00 532.10 C 426.38 546.10 410.95 562.02 389.71 568.92 C 381.48 571.51 372.90 572.78 364.27 572.68 Z" stroke-linecap="round"/>
</g>
		<g id="Layer_1-2">
<path style="stroke: rgb(193,193,193); stroke-width: 0; stroke-dasharray: none; stroke-linecap: butt; stroke-dashoffset: 0; stroke-linejoin: miter; stroke-miterlimit: 4; fill: rgb(0,161,195); fill-rule: nonzero; opacity: 1;" transform="matrix(1.42401 0 0 1.42463 599.810663 599.876057) matrix(1 0 0 1 0 0)  translate(-298.32, -287.707953)" d="M 232.39 575.41 C 223.49 575.51 214.62 574.19 206.13 571.51 C 184.26 564.41 168.58 548.26 154.75 534.01 C 147.47 526.52 140.62 519.47 133.64 514.38 C 126.66 509.29 117.58 504.78 108.13 500.11 C 90.40 491.35 70.33 481.44 56.97 463.11 C 43.74 444.90 40.61 423.75 37.59 403.30 C 36.04 392.75 34.59 382.83 31.80 374.30 C 29.20 366.30 24.68 357.76 19.89 348.71 C 10.57 331.07 0.00 311.09 0.00 287.70 C 0.00 264.31 10.57 244.34 19.89 226.70 C 24.68 217.64 29.21 209.09 31.81 201.09 C 34.57 192.57 36.04 182.66 37.58 172.16 C 40.58 151.65 43.74 130.50 56.97 112.31 C 70.32 94.00 90.39 84.06 108.10 75.31 C 117.57 70.63 126.50 66.21 133.64 61.02 C 140.64 55.95 147.47 48.89 154.72 41.41 C 168.57 27.16 184.25 11.00 206.13 3.90 C 227.13 -2.93 248.13 0.60 268.30 4.02 C 278.97 5.82 289.05 7.53 298.30 7.53 C 307.55 7.53 317.66 5.82 328.30 4.02 C 348.61 0.60 369.51 -2.93 390.54 3.90 C 412.43 11.01 428.11 27.16 441.94 41.41 C 449.23 48.91 456.07 56.00 463.00 61.00 C 470.14 66.20 479.07 70.61 488.53 75.28 C 506.26 84.04 526.32 93.96 539.66 112.28 C 553.00 130.60 556.03 151.62 559.04 172.07 C 560.60 182.58 562.04 192.51 564.84 201.07 C 567.43 209.07 571.95 217.60 576.74 226.65 C 586.07 244.29 596.64 264.28 596.64 287.65 C 596.64 311.02 586.07 331.02 576.75 348.65 C 571.95 357.71 567.43 366.26 564.84 374.24 C 562.06 382.80 560.60 392.72 559.04 403.24 C 556.04 423.68 552.91 444.83 539.67 463.03 C 526.43 481.23 506.24 491.29 488.53 500.03 C 479.07 504.71 470.14 509.12 463.00 514.31 C 456.00 519.38 449.21 526.41 442.00 533.86 C 428.10 548.18 412.41 564.33 390.53 571.44 C 382.04 574.12 373.17 575.44 364.26 575.33 C 352.10 575.33 340.03 573.33 328.36 571.33 C 317.69 569.52 307.62 567.82 298.36 567.82 C 289.10 567.82 278.98 569.52 268.36 571.33 C 256.53 573.38 244.52 575.41 232.39 575.41 Z M 298.34 562.41 C 308.09 562.41 318.34 564.15 329.28 565.99 C 340.72 567.93 352.56 569.93 364.28 569.93 C 372.62 570.04 380.92 568.81 388.87 566.31 C 409.47 559.62 424.65 543.98 438.04 530.18 C 445.51 522.49 452.50 515.30 459.83 509.96 C 467.35 504.49 476.48 499.96 486.15 495.20 C 503.30 486.73 522.74 477.12 535.30 459.86 C 547.86 442.60 550.77 422.28 553.70 402.48 C 555.28 391.74 556.78 381.59 559.70 372.60 C 562.44 364.18 567.07 355.42 571.98 346.15 C 580.98 329.07 591.24 309.72 591.24 287.68 C 591.24 265.64 581.00 246.32 572.00 229.25 C 567.09 219.97 562.46 211.25 559.72 202.79 C 556.81 193.79 555.31 183.65 553.72 172.91 C 550.79 153.11 547.78 132.64 535.32 115.52 C 522.86 98.40 503.32 88.67 486.20 80.20 C 476.51 75.41 467.38 70.90 459.86 65.43 C 452.52 60.08 445.51 52.88 438.10 45.25 C 424.67 31.41 409.49 15.77 388.89 9.08 C 369.12 2.66 348.89 6.08 329.33 9.39 C 318.41 11.23 308.12 12.98 298.33 12.98 C 288.54 12.98 278.33 11.24 267.39 9.39 C 247.81 6.08 227.58 2.66 207.80 9.08 C 187.21 15.77 172.00 31.41 158.64 45.20 C 151.21 52.85 144.20 60.07 136.84 65.43 C 129.33 70.89 120.20 75.43 110.52 80.19 C 93.37 88.66 73.94 98.26 61.38 115.52 C 48.82 132.78 45.91 153.11 43.00 172.91 C 41.41 183.69 39.91 193.82 37.00 202.79 C 34.25 211.23 29.62 219.98 24.72 229.24 C 15.72 246.32 5.46 265.67 5.46 287.70 C 5.46 309.73 15.69 329.08 24.72 346.16 C 29.62 355.42 34.25 364.16 36.99 372.62 C 39.90 381.62 41.40 391.72 42.99 402.45 C 45.93 422.30 48.99 442.77 61.40 459.88 C 73.97 477.15 93.40 486.75 110.54 495.22 C 120.23 500.01 129.36 504.52 136.86 509.98 C 144.36 515.44 151.24 522.56 158.66 530.20 C 172.07 544.01 187.25 559.64 207.83 566.33 C 227.60 572.75 247.83 569.33 267.41 566.01 C 278.29 564.17 288.58 562.43 298.34 562.43 Z" stroke-linecap="round"/>
</g>
		<g id="Layer_1-2">
<path style="stroke: rgb(193,193,193); stroke-width: 0; stroke-dasharray: none; stroke-linecap: butt; stroke-dashoffset: 0; stroke-linejoin: miter; stroke-miterlimit: 4; fill: rgb(254,228,202); fill-rule: nonzero; opacity: 1;" transform="matrix(1.42401 0 0 1.42463 599.810663 599.876057) matrix(1 0 0 1 0.03 0.011178)  translate(-298.35, -287.719131)" d="M 572.77 228.83 L 571.96 229.24 L 572.76 228.82 C 567.88 219.59 563.26 210.82 560.55 202.50 C 557.66 193.61 556.17 183.50 554.55 172.80 C 551.61 152.88 548.55 132.28 535.98 114.99 C 523.41 97.70 503.75 87.89 486.51 79.38 C 476.88 74.62 467.78 70.12 460.32 64.69 C 453.03 59.39 446.05 52.20 438.65 44.58 C 425.22 30.70 410.00 15.00 389.14 8.22 C 369.14 1.73 348.81 5.17 329.14 8.50 C 318.27 10.33 308.01 12.07 298.34 12.07 C 288.67 12.07 278.42 10.33 267.54 8.49 C 247.86 5.17 227.54 1.73 207.54 8.22 C 186.72 15.00 171.46 30.69 158.00 44.57 C 150.60 52.18 143.62 59.38 136.32 64.69 C 128.86 70.12 119.76 74.61 110.13 79.37 C 92.88 87.89 73.34 97.55 60.64 115.00 C 48.06 132.28 45.00 152.87 42.08 172.79 C 40.50 183.50 39.01 193.61 36.08 202.51 C 33.37 210.86 28.76 219.57 23.87 228.81 C 14.83 246.00 4.54 265.45 4.54 287.70 C 4.54 309.95 14.83 329.42 23.91 346.58 C 28.79 355.82 33.41 364.58 36.12 372.90 C 39.01 381.80 40.50 391.90 42.12 402.60 C 45.06 422.52 48.12 443.13 60.68 460.42 C 73.24 477.71 92.87 487.51 110.12 496.00 C 119.76 500.77 128.86 505.26 136.31 510.68 C 143.60 515.99 150.58 523.18 157.97 530.79 C 171.45 544.67 186.73 560.40 207.53 567.16 C 227.53 573.65 247.86 570.16 267.53 566.88 C 278.39 565.04 288.65 563.31 298.32 563.31 C 307.99 563.31 318.25 565.04 329.13 566.88 C 340.61 568.82 352.49 570.88 364.26 570.88 C 372.69 570.98 381.09 569.75 389.13 567.21 C 409.94 560.45 425.21 544.73 438.67 530.85 C 446.07 523.23 453.07 516.03 460.35 510.73 C 467.79 505.32 476.89 500.82 486.53 496.06 C 503.78 487.53 523.32 477.88 536.02 460.44 C 548.72 443.00 551.64 422.56 554.58 402.64 C 556.16 391.93 557.65 381.81 560.58 372.92 C 563.29 364.56 567.90 355.84 572.79 346.60 C 581.87 329.44 592.16 309.98 592.16 287.72 C 592.16 265.46 581.84 246.00 572.77 228.83 Z M 558.31 339.00 L 557.51 338.58 C 552.51 348.05 547.31 357.85 544.14 367.58 C 540.80 377.88 539.14 389.19 537.52 400.12 C 534.89 417.96 532.16 436.41 522.08 450.27 C 512.00 464.13 495.08 472.57 478.90 480.58 C 469.04 485.45 458.84 490.49 450.21 496.77 C 441.73 502.95 433.89 511.02 426.30 518.83 C 413.64 531.83 400.55 545.36 383.81 550.83 C 377.47 552.80 370.86 553.74 364.22 553.63 C 353.80 553.63 342.72 551.76 332.00 549.95 C 320.91 548.07 309.45 546.14 298.33 546.14 C 287.21 546.14 275.77 548.07 264.67 549.95 C 253.96 551.76 242.88 553.64 232.45 553.64 C 225.81 553.75 219.20 552.80 212.86 550.83 C 196.13 545.40 183.03 531.91 170.36 518.83 C 162.78 511.03 154.95 502.96 146.46 496.83 C 137.97 490.70 127.64 485.52 117.76 480.63 C 101.55 472.63 84.76 464.34 74.59 450.33 C 64.42 436.32 61.78 418.00 59.15 400.11 C 57.54 389.17 55.87 377.86 52.53 367.57 C 49.36 357.82 44.18 348.02 39.15 338.51 C 30.62 322.37 21.79 305.68 21.79 287.70 C 21.79 269.72 30.62 253.00 39.17 236.88 C 44.17 227.40 49.36 217.61 52.53 207.88 C 55.87 197.60 57.53 186.28 59.15 175.34 C 61.78 157.50 64.51 139.05 74.59 125.19 C 84.78 111.19 101.59 102.90 117.76 94.89 C 127.63 90.02 137.82 84.98 146.46 78.69 C 154.94 72.52 162.78 64.45 170.38 56.62 C 183.04 43.62 196.13 30.11 212.86 24.68 C 219.20 22.71 225.81 21.76 232.44 21.87 C 242.88 21.87 253.96 23.75 264.68 25.56 C 275.76 27.43 287.22 29.37 298.33 29.37 C 309.44 29.37 320.94 27.38 332.00 25.50 C 342.71 23.69 353.77 21.82 364.19 21.82 C 370.82 21.71 377.43 22.66 383.77 24.63 C 400.51 30.06 413.60 43.54 426.28 56.63 C 433.85 64.43 441.68 72.49 450.17 78.63 C 458.66 84.77 469.00 90.00 478.90 94.84 C 495.12 102.84 511.90 111.13 522.08 125.14 C 532.26 139.15 534.89 157.45 537.52 175.29 C 539.13 186.23 540.80 197.54 544.14 207.83 C 547.31 217.61 552.49 227.40 557.51 236.89 C 566.05 253.03 574.88 269.72 574.88 287.70 C 574.88 305.68 566.05 322.37 557.51 338.52 L 557.51 338.52 L 558.31 338.95 Z" stroke-linecap="round"/>
</g>
		<g id="Layer_1-2">
<path style="stroke: rgb(193,193,193); stroke-width: 0; stroke-dasharray: none; stroke-linecap: butt; stroke-dashoffset: 0; stroke-linejoin: miter; stroke-miterlimit: 4; fill: rgb(0,161,195); fill-rule: nonzero; opacity: 1;" transform="matrix(1.42401 0 0 1.42463 599.810663 599.876057) matrix(1 0 0 1 0.015 -0.043766)  translate(-298.335, -287.664186)" d="M 364.23 39.07 C 369.06 38.99 373.86 39.67 378.48 41.07 C 391.15 45.19 402.21 56.58 413.93 68.64 C 422.01 76.97 430.37 85.58 440.06 92.64 C 449.75 99.70 460.75 105.16 471.26 110.36 C 486.26 117.77 500.43 124.77 508.13 135.36 C 515.83 145.95 518.01 161.36 520.45 177.88 C 522.17 189.53 523.95 201.57 527.73 213.23 C 531.36 224.42 536.90 234.89 542.26 245.02 C 550.16 259.96 557.63 274.07 557.63 287.77 C 557.63 301.47 550.16 315.58 542.26 330.53 C 536.90 340.65 531.36 351.13 527.73 362.31 C 523.95 373.98 522.17 386.02 520.45 397.66 C 518.01 414.17 515.71 429.76 508.13 440.18 C 500.43 450.76 486.26 457.76 471.26 465.18 C 460.75 470.37 449.88 475.74 440.06 482.89 C 430.24 490.04 422.01 498.55 413.93 506.89 C 402.22 518.95 391.15 530.35 378.48 534.46 C 373.86 535.87 369.05 536.54 364.22 536.46 C 355.22 536.46 345.22 534.77 334.88 533.02 C 323.09 531.02 310.88 528.96 298.33 528.96 C 285.78 528.96 273.58 531.03 261.79 533.02 C 251.43 534.77 241.43 536.46 232.45 536.46 C 227.62 536.54 222.81 535.87 218.19 534.46 C 205.52 530.35 194.46 518.95 182.74 506.89 C 174.66 498.56 166.30 489.95 156.61 482.89 C 146.92 475.83 135.92 470.37 125.41 465.18 C 110.41 457.77 96.24 450.77 88.54 440.18 C 80.96 429.76 78.65 414.18 76.22 397.67 C 74.50 386.02 72.72 373.98 68.94 362.32 C 65.30 351.13 59.77 340.65 54.41 330.53 C 46.51 315.52 39.00 301.40 39.00 287.70 C 39.00 274.00 46.51 259.89 54.41 245.00 C 59.77 234.87 65.30 224.40 68.94 213.21 C 72.72 201.55 74.50 189.51 76.22 177.86 C 78.65 161.36 80.96 145.77 88.54 135.34 C 96.12 124.91 110.41 117.77 125.41 110.34 C 135.92 105.14 146.79 99.77 156.61 92.62 C 166.43 85.47 174.61 76.96 182.74 68.62 C 194.46 56.54 205.52 45.15 218.19 41.00 C 222.81 39.60 227.61 38.92 232.44 39.00 C 241.44 39.00 251.44 40.69 261.80 42.44 C 273.59 44.44 285.80 46.44 298.33 46.44 C 310.86 46.44 323.09 44.38 334.88 42.44 C 345.25 40.69 355.25 38.99 364.23 38.99 M 364.23 20.83 L 364.23 20.83 C 353.74 20.83 342.64 22.71 331.90 24.52 C 320.80 26.40 309.37 28.33 298.33 28.33 C 287.29 28.33 275.88 26.40 264.83 24.53 C 254.07 22.71 242.95 20.84 232.44 20.84 C 225.71 20.73 219.01 21.69 212.58 23.68 C 195.58 29.18 182.46 42.75 169.72 55.86 C 162.16 63.65 154.35 71.70 145.93 77.86 C 137.35 84.10 127.19 89.12 117.36 93.97 C 101.05 102.03 84.18 110.37 73.86 124.56 C 63.64 138.56 60.86 157.16 58.25 175.11 C 56.65 186.01 54.98 197.29 51.67 207.50 C 48.52 217.20 43.36 226.96 38.36 236.40 C 29.77 252.70 20.88 269.50 20.88 287.70 C 20.88 305.90 29.77 322.70 38.36 338.95 C 43.36 348.40 48.52 358.16 51.66 367.85 C 54.98 378.07 56.66 389.34 58.26 400.25 C 60.90 418.20 63.64 436.76 73.86 450.80 C 84.08 464.84 101.05 473.32 117.36 481.38 C 127.20 486.24 137.36 491.26 145.92 497.50 C 154.48 503.74 162.16 511.67 169.71 519.44 C 182.46 532.58 195.63 546.14 212.58 551.64 C 219.01 553.64 225.72 554.60 232.45 554.49 C 242.96 554.49 254.07 552.61 264.82 550.79 C 275.87 548.93 287.30 546.99 298.33 546.99 C 309.36 546.99 320.80 548.93 331.85 550.79 C 342.60 552.61 353.72 554.49 364.22 554.49 C 370.95 554.60 377.66 553.64 384.09 551.64 C 401.09 546.14 414.22 532.57 426.95 519.45 C 434.52 511.66 442.33 503.62 450.74 497.45 C 459.31 491.21 469.47 486.19 479.30 481.34 C 495.62 473.27 512.48 464.94 522.81 450.75 C 533.14 436.56 535.81 418.14 538.42 400.19 C 540.02 389.29 541.69 378.02 545.00 367.80 C 548.15 358.10 553.32 348.34 558.31 338.90 C 566.91 322.65 575.79 305.90 575.79 287.65 C 575.79 269.40 566.91 252.65 558.32 236.42 C 553.32 226.97 548.15 217.20 545.01 207.50 C 541.69 197.29 540.01 186.01 538.41 175.11 C 535.77 157.16 533.03 138.60 522.81 124.56 C 512.59 110.52 495.62 102.08 479.31 94.00 C 469.47 89.14 459.31 84.12 450.74 77.89 C 442.17 71.66 434.51 63.73 427.00 56.00 C 414.21 42.83 401.00 29.27 384.09 23.76 C 377.66 21.77 370.96 20.81 364.23 20.91 Z" stroke-linecap="round"/>
</g>
</g>
</g>
<g id="APhn8iTVgFUtjpVgbEm1J">
<g style="">
		<g id="Layer_1-2">
<path style="stroke: rgb(193,193,193); stroke-width: 0; stroke-dasharray: none; stroke-linecap: butt; stroke-dashoffset: 0; stroke-linejoin: miter; stroke-miterlimit: 4; fill: rgb(255,255,255); fill-rule: nonzero; opacity: 1;" transform="matrix(0.151589 0.151589 -0.151589 0.151589 305.921394 599.875913) matrix(1 0 0 1 0 0)  translate(-185.11, -185.11)" d="M 370.22 185.11 C 370.22 195.51 360.22 203.94 347.85 203.94 C 338.97 203.94 258.73 199.58 214.34 193.27 L 214.34 204.41 C 214.33 209.89 209.89 214.33 204.41 214.34 L 193.27 214.34 C 199.59 258.73 204.00 339.00 204.00 347.85 C 204.00 360.20 195.56 370.22 185.16 370.22 C 174.76 370.22 166.33 360.22 166.33 347.85 C 166.33 338.97 170.69 258.73 177.00 214.34 L 165.81 214.34 C 160.33 214.33 155.89 209.89 155.88 204.41 L 155.88 193.27 C 111.49 199.59 31.25 204.00 22.37 204.00 C 10.00 204.00 0.00 195.51 0.00 185.11 C 0.00 174.71 10.00 166.28 22.37 166.28 C 31.25 166.28 111.49 170.64 155.88 176.95 L 155.88 165.82 C 155.88 160.33 160.32 155.89 165.81 155.88 L 177.00 155.88 C 170.68 111.49 166.32 31.25 166.32 22.37 C 166.27 10.00 174.70 0.00 185.11 0.00 C 195.52 0.00 203.94 10.00 203.94 22.37 C 203.94 31.25 199.58 111.49 193.27 155.88 L 204.41 155.88 C 209.90 155.89 214.34 160.33 214.34 165.82 L 214.34 177.00 C 258.73 170.68 338.97 166.32 347.85 166.32 C 360.20 166.27 370.22 174.70 370.22 185.11 Z" stroke-linecap="round"/>
</g>
</g>
</g>
<g id="B58z8ifWEl9s0Rd7qJLes">
<g style="">
		<g id="Layer_1-2">
<path style="stroke: rgb(193,193,193); stroke-width: 0; stroke-dasharray: none; stroke-linecap: butt; stroke-dashoffset: 0; stroke-linejoin: miter; stroke-miterlimit: 4; fill: rgb(255,255,255); fill-rule: nonzero; opacity: 1;" transform="matrix(0.151589 0.151589 -0.151589 0.151589 891.777519 599.875913) matrix(1 0 0 1 0 0)  translate(-185.11, -185.11)" d="M 370.22 185.11 C 370.22 195.51 360.22 203.94 347.85 203.94 C 338.97 203.94 258.73 199.58 214.34 193.27 L 214.34 204.41 C 214.33 209.89 209.89 214.33 204.41 214.34 L 193.27 214.34 C 199.59 258.73 204.00 339.00 204.00 347.85 C 204.00 360.20 195.56 370.22 185.16 370.22 C 174.76 370.22 166.33 360.22 166.33 347.85 C 166.33 338.97 170.69 258.73 177.00 214.34 L 165.81 214.34 C 160.33 214.33 155.89 209.89 155.88 204.41 L 155.88 193.27 C 111.49 199.59 31.25 204.00 22.37 204.00 C 10.00 204.00 0.00 195.51 0.00 185.11 C 0.00 174.71 10.00 166.28 22.37 166.28 C 31.25 166.28 111.49 170.64 155.88 176.95 L 155.88 165.82 C 155.88 160.33 160.32 155.89 165.81 155.88 L 177.00 155.88 C 170.68 111.49 166.32 31.25 166.32 22.37 C 166.27 10.00 174.70 0.00 185.11 0.00 C 195.52 0.00 203.94 10.00 203.94 22.37 C 203.94 31.25 199.58 111.49 193.27 155.88 L 204.41 155.88 C 209.90 155.89 214.34 160.33 214.34 165.82 L 214.34 177.00 C 258.73 170.68 338.97 166.32 347.85 166.32 C 360.20 166.27 370.22 174.70 370.22 185.11 Z" stroke-linecap="round"/>
</g>
</g>
</g>
<g id="-jI6KgzyE8VsqXPhts_or">
<path style="stroke: rgb(114,114,114); stroke-width: 0; stroke-dasharray: none; stroke-linecap: butt; stroke-dashoffset: 0; stroke-linejoin: round; stroke-miterlimit: 4; fill: rgb(114,114,114); fill-rule: nonzero; opacity: 1;" vector-effect="non-scaling-stroke" transform="matrix(1 0 0 1 0 0)  translate(0, 0)" d="" stroke-linecap="round"/>
</g>
<g id="wRyHkBvyB0z-NIF5BOdjN">
<g>
		<g id="tnoDwLIC_SuUl5cJyJy9c">
<path style="stroke: rgb(136,136,136); stroke-width: 0; stroke-dasharray: none; stroke-linecap: butt; stroke-dashoffset: 0; stroke-linejoin: miter; stroke-miterlimit: 4; fill: rgb(255,255,255); fill-rule: nonzero; opacity: 1;" d="M312.05,716.33l30.57,-12.48l2.6,6.37l-30.57,12.48zM331,755.9l15.45,-24.83c-2.04,1.42 -3.72,2.51 -5.01,3.26l-17.11,9.33l-2.94,-5.38l28.99,-15.81l3.76,6.9l-15.48,25.12c1.94,-1.37 3.74,-2.53 5.41,-3.49l16.86,-9.19l2.93,5.38l-28.98,15.81zM356.46,793.73l11.64,-26.83c-1.82,1.7 -3.31,3.02 -4.48,3.96l-15.56,11.74l-3.69,-4.89l26.35,-19.89l4.74,6.28l-11.63,27.11c1.72,-1.64 3.33,-3.05 4.84,-4.24l15.33,-11.57l3.69,4.89l-26.35,19.9zM407.48,823.91c-2.4,2.46 -5,4.15 -7.79,5.06c-2.8,0.9 -5.59,0.97 -8.37,0.19c-2.77,-0.76 -5.37,-2.33 -7.8,-4.7c-3.73,-3.64 -5.58,-7.57 -5.55,-11.8c0.03,-4.22 1.9,-8.23 5.62,-12.05c3.69,-3.78 7.62,-5.71 11.8,-5.81c4.19,-0.09 8.16,1.7 11.91,5.36c3.75,3.66 5.64,7.6 5.65,11.81c0.01,4.21 -1.81,8.19 -5.47,11.94zM402.43,818.99c2.47,-2.54 3.82,-5.13 4.03,-7.78c0.21,-2.65 -0.77,-5.04 -2.95,-7.17c-2.21,-2.15 -4.63,-3.09 -7.26,-2.83c-2.63,0.27 -5.19,1.69 -7.69,4.25c-2.53,2.6 -3.9,5.24 -4.12,7.94c-0.21,2.71 0.74,5.1 2.87,7.17c2.21,2.15 4.63,3.1 7.26,2.83c2.62,-0.27 5.24,-1.74 7.86,-4.41zM421.66,855.63l-5.68,-4.11l9.47,-33.9l5.81,4.2l-6.9,21.2c-0.47,1.37 -1.23,3.39 -2.26,6.08l1.61,-1.34l3.41,-2.74l17.91,-13.23l5.82,4.2zM464.52,881.12l1.36,-8.82l-11.17,-5.86l-6.53,6.11l-6.09,-3.2l26,-23.65l7.21,3.79l-4.69,34.83zM469.31,852.09l-0.35,0.41c-0.41,0.44 -0.87,0.93 -1.39,1.46c-0.52,0.53 -3.54,3.4 -9.05,8.6l8.4,4.41l1.48,-9.93l0.61,-3.27zM508.15,869.14l-9.34,26.08l-6.48,-2.32l9.35,-26.08l-10.08,-3.61l1.8,-5.01l26.62,9.54l-1.79,5.01zM522.58,902.37l7.88,-32.06l6.68,1.64l-7.88,32.07zM579.79,895.24c-0.42,3.41 -1.48,6.32 -3.16,8.74c-1.68,2.41 -3.85,4.14 -6.53,5.21c-2.68,1.06 -5.71,1.38 -9.07,0.96c-5.16,-0.65 -9.01,-2.66 -11.54,-6.05c-2.53,-3.38 -3.46,-7.71 -2.8,-13c0.66,-5.24 2.62,-9.16 5.9,-11.76c3.28,-2.6 7.52,-3.57 12.72,-2.92c5.2,0.65 9.08,2.65 11.63,6c2.55,3.35 3.5,7.62 2.85,12.82zM572.8,894.37c0.44,-3.52 -0.06,-6.4 -1.49,-8.63c-1.43,-2.25 -3.65,-3.55 -6.68,-3.93c-3.05,-0.39 -5.55,0.32 -7.49,2.12c-1.93,1.8 -3.12,4.48 -3.56,8.03c-0.45,3.6 0.05,6.54 1.51,8.82c1.47,2.29 3.67,3.61 6.61,3.98c3.06,0.38 5.56,-0.33 7.49,-2.13c1.94,-1.8 3.14,-4.55 3.61,-8.26zM614.06,911.85l-15.05,-25.07c0.33,2.47 0.53,4.45 0.61,5.95l0.5,19.48l-6.13,0.16l-0.85,-33.01l7.86,-0.2l15.3,25.23c-0.34,-2.34 -0.55,-4.48 -0.64,-6.4l-0.49,-19.19l6.13,-0.16l0.84,33.01zM684.66,900.52l-4.87,-7.48l-12.22,3.08l-0.81,8.9l-6.67,1.68l3.61,-34.95l7.9,-1.99l19.73,29.08zM668.87,875.69l0.01,0.54c-0.01,0.6 -0.03,1.27 -0.06,2.01c-0.03,0.75 -0.37,4.89 -1.01,12.45l9.2,-2.32l-5.51,-8.39l-1.73,-2.84zM709.18,862.49l10.43,25.66l-6.37,2.59l-10.43,-25.66l-9.91,4.03l-2.01,-4.93l26.2,-10.65l2,4.93zM780.05,854.44l-7.98,-11.7l-11.9,8.11l7.98,11.71l-5.68,3.87l-18.6,-27.28l5.68,-3.87l7.4,10.84l11.89,-8.11l-7.39,-10.85l5.68,-3.87l18.61,27.28zM799.39,839.67l-22.34,-24.31l19.12,-17.58l3.6,3.92l-14.06,12.92l5.64,6.13l12.99,-11.93l3.6,3.91l-12.99,11.94l5.91,6.43l14.73,-13.54l3.6,3.92zM845.03,791.86l-8.36,-3.12l-8,9.74l4.64,7.64l-4.36,5.31l-17.88,-30.25l5.17,-6.3l33.15,11.67zM817.57,781.29l0.33,0.41c0.35,0.49 0.73,1.04 1.15,1.66c0.42,0.61 2.61,4.15 6.58,10.61l6.02,-7.33l-9.41,-3.47l-3.08,-1.27zM869.86,754.32l-14.71,0.19l-4.15,6.96l10.79,6.42l-3.52,5.91l-28.38,-16.89l8.43,-14.16c2.02,-3.38 4.3,-5.56 6.85,-6.53c2.55,-0.97 5.19,-0.64 7.9,0.97c1.99,1.18 3.37,2.77 4.15,4.75c0.76,1.98 0.81,4.07 0.13,6.27l16.48,-0.55zM849.77,743.3c-2.71,-1.61 -5.12,-0.67 -7.21,2.85l-4.52,7.6l8.34,4.97l4.64,-7.8c0.99,-1.67 1.37,-3.15 1.14,-4.45c-0.23,-1.3 -1.03,-2.36 -2.39,-3.17zM860.75,709.58l25.49,10.83l-2.69,6.34l-25.5,-10.83l-4.18,9.84l-4.9,-2.08l11.06,-26.03l4.9,2.08z" stroke-linecap="round"/>
</g>
</g>
</g>
<g id="BGb280BvTpWyAorBg1aJ2">
<path style="stroke: rgb(193,193,193); stroke-width: 0; stroke-dasharray: none; stroke-linecap: butt; stroke-dashoffset: 0; stroke-linejoin: miter; stroke-miterlimit: 4; fill: rgb(114,114,114); fill-rule: nonzero; opacity: 1;" transform="matrix(1 0 0 1 0 0)  translate(0, 0)" d="" stroke-linecap="round"/>
</g>
<g id="e9LB_GlyY2-bafJDKBCeH">
<path style="stroke: rgb(193,193,193); stroke-width: 0; stroke-dasharray: none; stroke-linecap: butt; stroke-dashoffset: 0; stroke-linejoin: miter; stroke-miterlimit: 4; fill: rgb(136,136,136); fill-rule: nonzero; opacity: 1;" transform="matrix(1 0 0 1 0 0)  translate(0, 0)" d="" stroke-linecap="round"/>
</g>
<g id="Yk5kvkSnoColLEU-_x1oG">
<path style="stroke: rgb(114,114,114); stroke-width: 0; stroke-dasharray: none; stroke-linecap: butt; stroke-dashoffset: 0; stroke-linejoin: round; stroke-miterlimit: 4; fill: rgb(114,114,114); fill-rule: nonzero; opacity: 1;" vector-effect="non-scaling-stroke" transform="matrix(1 0 0 1 0 0)  translate(0, 0)" d="" stroke-linecap="round"/>
</g>
<g id="-TpOT_Q7PorW_h3KGh_7i">
<g>
		<g id="vfl6WjkGUQrQGm1ZYS5To">
<path style="stroke: rgb(136,136,136); stroke-width: 0; stroke-dasharray: none; stroke-linecap: butt; stroke-dashoffset: 0; stroke-linejoin: miter; stroke-miterlimit: 4; fill: rgb(255,255,255); fill-rule: nonzero; opacity: 1;" d="M365.84,495.5c-1.99,4.55 -4.81,7.45 -8.44,8.7c-3.64,1.26 -7.82,0.85 -12.54,-1.23l-32.47,-14.23c-4.73,-2.07 -7.86,-4.87 -9.4,-8.39c-1.54,-3.52 -1.32,-7.56 0.68,-12.11c1.99,-4.55 4.81,-7.45 8.44,-8.71c3.64,-1.25 7.82,-0.84 12.55,1.23l6.38,2.8l-3.94,8.98l-6.99,-3.06c-3.74,-1.64 -6.3,-0.88 -7.69,2.28c-1.39,3.17 -0.21,5.58 3.53,7.22l33.77,14.8c3.68,1.62 6.21,0.84 7.6,-2.33c1.39,-3.16 0.24,-5.55 -3.44,-7.16l-9.24,-4.06l3.94,-8.98l8.54,3.75c4.73,2.07 7.86,4.86 9.4,8.39c1.54,3.53 1.32,7.56 -0.68,12.11zM323.31,431.52l5.8,-8.6l22.29,15.01l6.22,-9.23l-22.3,-15.01l5.8,-8.6l54.75,36.87l-5.8,8.6l-24.63,-16.59l-6.22,9.23l24.64,16.59l-5.8,8.6zM358.89,383.36l10.8,-10.94c3.75,-3.81 7.37,-5.71 10.86,-5.71c3.49,0 7.07,1.81 10.74,5.43l2.89,2.85c4.88,4.81 6.37,9.47 4.49,13.97l0.13,0.14c2.31,-1.26 4.65,-1.45 7.04,-0.55c2.38,0.89 4.96,2.71 7.74,5.45l8.25,8.14c1.34,1.32 2.47,2.35 3.39,3.08c0.91,0.73 1.95,1.31 3.11,1.75l-7.41,7.51c-1.03,-0.48 -1.93,-1 -2.69,-1.58c-0.76,-0.57 -2.01,-1.71 -3.75,-3.44l-8.6,-8.48c-2.15,-2.12 -3.99,-3.25 -5.52,-3.4c-1.53,-0.14 -3.14,0.64 -4.81,2.34l-2.53,2.55l20.14,19.87l-7.28,7.38zM388.97,393.16c1.45,-1.48 2.16,-2.96 2.13,-4.44c-0.03,-1.5 -0.94,-3.13 -2.73,-4.89l-3.63,-3.58c-1.69,-1.67 -3.22,-2.59 -4.58,-2.74c-1.36,-0.14 -2.68,0.44 -3.96,1.73l-3.31,3.36l13.42,13.25zM400.57,344.74l8.26,-6.27l39.91,52.58l-8.26,6.27zM475.07,375.39c-4.39,2.45 -8.41,3.05 -12.05,1.8c-3.64,-1.24 -6.76,-4.2 -9.36,-8.87l-1.84,-3.3l8.57,-4.77l2.21,3.96c2.08,3.73 4.68,4.73 7.81,2.99c1.53,-0.86 2.45,-1.96 2.75,-3.31c0.29,-1.35 -0.13,-3.04 -1.26,-5.08c-1.35,-2.41 -3.08,-4.24 -5.21,-5.47c-2.12,-1.22 -5.39,-2.3 -9.79,-3.23c-5.57,-1.22 -9.84,-2.75 -12.8,-4.58c-2.96,-1.84 -5.38,-4.44 -7.25,-7.79c-2.53,-4.56 -3.34,-8.73 -2.43,-12.51c0.92,-3.78 3.57,-6.9 7.97,-9.34c4.34,-2.42 8.31,-3 11.93,-1.74c3.62,1.27 6.72,4.23 9.32,8.89l1.33,2.4l-8.57,4.77l-1.65,-2.97c-1.1,-1.98 -2.29,-3.2 -3.56,-3.68c-1.27,-0.48 -2.65,-0.31 -4.13,0.52c-3.02,1.68 -3.51,4.36 -1.47,8.04c1.17,2.09 2.82,3.73 4.95,4.91c2.14,1.18 5.41,2.24 9.81,3.17c5.63,1.19 9.9,2.73 12.83,4.63c2.92,1.89 5.39,4.66 7.41,8.28c2.63,4.73 3.48,9 2.56,12.83c-0.94,3.83 -3.63,6.98 -8.08,9.45zM490.53,305.1l-10.23,3.58l-3.12,-8.9l30.25,-10.61l3.12,8.9l-10.23,3.59l18.73,53.39l-9.8,3.44zM530.61,283.63l10.18,-2.02l12.86,64.75l-10.17,2.02zM567.34,277.56l13,-0.6l11.89,39h0.19l-1.81,-39.47l9.23,-0.43l3.03,65.94l-10.65,0.49l-14.64,-47.57l-0.19,0.01l2.21,48.14l-9.23,0.43zM660.88,281.79l14.31,3.83l-5.83,47.34l0.18,0.05l18.59,-43.93l14.29,3.82l-17.05,63.77l-9.47,-2.53l12.91,-48.29l-0.18,-0.05l-20.21,46.34l-8.37,-2.25l5.62,-50.23l-0.19,-0.05l-12.91,48.28l-8.74,-2.33zM712.35,370.28c-4.55,-2.28 -7.38,-5.32 -8.5,-9.12c-1.12,-3.79 -0.49,-8.05 1.88,-12.77l15.58,-31.02c2.37,-4.72 5.41,-7.76 9.12,-9.13c3.72,-1.37 7.85,-0.91 12.39,1.37c4.55,2.29 7.39,5.33 8.51,9.13c1.12,3.79 0.49,8.05 -1.88,12.77l-15.58,31.01c-2.37,4.72 -5.41,7.77 -9.12,9.14c-3.72,1.37 -7.85,0.91 -12.4,-1.38zM716.58,361.85c3.21,1.61 5.78,0.48 7.73,-3.39l16.17,-32.2c1.95,-3.87 1.32,-6.61 -1.89,-8.22c-3.2,-1.61 -5.77,-0.47 -7.72,3.4l-16.17,32.19c-1.95,3.88 -1.32,6.62 1.88,8.22zM779.6,331.92l12.24,9.29c4.26,3.23 6.61,6.57 7.07,10.03c0.45,3.46 -0.88,7.25 -4,11.35l-2.45,3.24c-4.14,5.45 -8.57,7.54 -13.27,6.26l-0.12,0.15c1.55,2.12 2.03,4.42 1.46,6.9c-0.59,2.48 -2.06,5.27 -4.42,8.38l-7,9.23c-1.14,1.5 -2.01,2.76 -2.62,3.76c-0.6,1 -1.04,2.11 -1.33,3.31l-8.41,-6.38c0.35,-1.08 0.76,-2.03 1.23,-2.86c0.46,-0.83 1.44,-2.22 2.92,-4.17l7.3,-9.62c1.82,-2.4 2.71,-4.37 2.66,-5.91c-0.06,-1.54 -1.04,-3.03 -2.95,-4.48l-2.85,-2.17l-17.1,22.54l-8.26,-6.27zM773.77,363c1.65,1.25 3.21,1.77 4.68,1.55c1.48,-0.23 2.98,-1.34 4.5,-3.34l3.07,-4.06c1.45,-1.9 2.15,-3.54 2.12,-4.91c-0.03,-1.36 -0.77,-2.59 -2.23,-3.7l-3.75,-2.84l-11.4,15.02zM822.6,380.96l-7.41,-7.93l6.89,-6.44l21.89,23.43l-6.89,6.44l-7.4,-7.92l-41.34,38.63l-7.08,-7.58zM811.21,458.54c-2.78,-4.26 -3.71,-8.31 -2.77,-12.15c0.94,-3.85 3.62,-7.21 8.04,-10.1l29.05,-19.01c4.41,-2.89 8.57,-3.99 12.47,-3.32c3.9,0.69 7.24,3.16 10.03,7.41c2.78,4.27 3.71,8.32 2.78,12.17c-0.95,3.84 -3.63,7.21 -8.05,10.1l-29.04,19c-4.42,2.89 -8.58,4 -12.48,3.32c-3.9,-0.68 -7.24,-3.16 -10.03,-7.42zM819.1,453.38c1.97,3 4.76,3.31 8.39,0.94l30.15,-19.72c3.63,-2.38 4.46,-5.06 2.49,-8.06c-1.96,-3 -4.75,-3.31 -8.38,-0.94l-30.15,19.72c-3.62,2.38 -4.46,5.06 -2.5,8.06zM888.68,459.16l4.99,12.02l-32.6,24.49l0.07,0.17l36.48,-15.17l3.55,8.53l-60.95,25.35l-4.09,-9.84l39.71,-29.99l-0.07,-0.18l-44.49,18.51l-3.55,-8.53z" stroke-linecap="round"/>
</g>
</g>
</g>
<g id="FnhaOWGFNal0EgZT6Qg0h">
<path style="stroke: rgb(193,193,193); stroke-width: 0; stroke-dasharray: none; stroke-linecap: butt; stroke-dashoffset: 0; stroke-linejoin: miter; stroke-miterlimit: 4; fill: rgb(114,114,114); fill-rule: nonzero; opacity: 1;" transform="matrix(1 0 0 1 0 0)  translate(0, 0)" d="" stroke-linecap="round"/>
</g>
<g id="sSX-A_2AP11rl1WW0D8Zy">
<path style="stroke: rgb(193,193,193); stroke-width: 0; stroke-dasharray: none; stroke-linecap: butt; stroke-dashoffset: 0; stroke-linejoin: miter; stroke-miterlimit: 4; fill: rgb(136,136,136); fill-rule: nonzero; opacity: 1;" transform="matrix(1 0 0 1 0 0)  translate(0, 0)" d="" stroke-linecap="round"/>
</g>
<g id="1Uu-0jkoUM4MpniwMxxC0">
<g style="">
		<g id="Layer_1-2">
<path style="stroke: rgb(193,193,193); stroke-width: 0; stroke-dasharray: none; stroke-linecap: butt; stroke-dashoffset: 0; stroke-linejoin: miter; stroke-miterlimit: 4; fill: rgb(255,255,255); fill-rule: nonzero; opacity: 1;" transform="matrix(0.69428 0 0 0.69428 599.673768 608.344577) matrix(1 0 0 1 0 0)  translate(-192.03235, -270.75)" d="M 355.50 207.90 C 342.90 186.50 345.20 197.60 351.60 166.30 C 358.10 135.00 339.70 95.40 319.60 69.90 C 320.80 68.10 321.50 66.00 321.50 63.80 C 321.50 58.20 317.10 53.50 311.30 52.80 C 311.40 52.10 311.50 51.40 311.50 50.70 C 311.50 44.60 306.30 39.70 299.90 39.70 C 293.50 39.70 297.50 39.90 296.40 40.20 C 295.60 34.80 290.80 30.70 284.90 30.70 C 279.00 30.70 282.30 30.90 281.10 31.30 C 280.20 26.10 275.40 22.10 269.70 22.10 C 264.00 22.10 266.20 22.50 264.70 23.20 C 263.60 18.20 259.00 14.30 253.30 14.30 C 247.60 14.30 248.40 15.10 246.40 16.50 C 245.00 11.90 240.50 8.60 235.30 8.60 C 230.10 8.60 229.90 9.60 227.90 11.20 C 226.50 6.60 222.00 3.30 216.80 3.30 C 211.60 3.30 209.80 5.00 207.70 7.60 C 205.80 3.90 201.90 1.30 197.20 1.30 C 192.50 1.30 190.20 3.00 188.00 5.60 C 186.00 2.30 182.30 0.10 178.00 0.10 C 173.70 0.10 169.70 2.50 167.70 6.10 C 167.70 6.10 167.50 6.10 167.50 6.10 C 165.40 3.20 161.90 1.40 158.00 1.40 C 154.10 1.40 148.80 4.40 147.10 8.60 C 145.00 6.30 141.90 4.90 138.50 4.90 C 132.60 4.90 127.80 9.10 127.00 14.50 C 124.90 12.50 122.00 11.20 118.70 11.20 C 112.30 11.20 107.10 16.10 107.10 22.20 C 107.10 28.30 107.10 23.00 107.10 23.40 C 105.30 22.30 103.10 21.60 100.80 21.60 C 94.40 21.60 89.20 26.50 89.20 32.60 C 89.20 38.70 89.30 34.50 89.60 35.40 C 88.10 34.70 86.50 34.40 84.70 34.40 C 78.30 34.40 73.10 39.30 73.10 45.40 C 73.10 51.50 73.50 48.80 74.30 50.30 C 74.30 50.30 74.30 50.30 74.30 50.30 C 73.10 49.90 71.80 49.70 70.50 49.70 C 64.10 49.70 58.90 54.60 58.90 60.70 C 58.90 66.80 59.60 64.90 60.70 66.60 C 56.70 65.90 52.40 67.30 49.60 70.80 C 46.10 75.10 46.00 81.00 49.10 85.10 C 46.50 85.60 44.10 87.00 42.20 89.20 C 39.10 93.00 38.70 98.20 40.80 102.10 C 39.20 102.80 37.70 103.90 36.40 105.40 C 32.60 110.00 32.80 116.60 36.70 120.60 C 36.70 120.60 36.70 120.60 36.70 120.60 C 36.20 121.10 35.70 121.50 35.20 122.10 C 31.60 126.40 31.60 132.40 34.80 136.50 C 33.20 140.00 33.30 143.90 35.10 147.10 C 38.20 189.40 64.80 227.40 64.80 227.40 C 63.70 241.80 75.70 262.00 79.10 283.60 C 90.40 354.00 31.70 396.00 0.00 423.70 C 121.00 375.80 122.30 432.40 169.80 505.50 C 190.90 537.90 214.70 541.40 214.70 541.40 C 214.70 541.40 188.50 501.10 197.50 474.90 C 208.20 447.40 231.50 440.10 240.10 417.00 C 252.30 384.20 255.50 386.70 268.70 384.40 C 317.70 405.60 340.00 390.80 344.10 380.10 C 354.80 351.90 341.50 349.80 350.30 339.90 C 357.00 332.30 360.60 334.20 362.70 330.60 C 367.40 322.40 358.00 310.60 358.00 310.60 C 363.60 308.50 372.10 298.70 372.90 293.70 C 373.70 288.70 368.20 286.20 366.60 284.40 C 362.10 279.30 362.50 272.80 362.50 272.80 C 363.70 269.60 374.50 272.20 382.40 260.20 C 390.30 248.20 368.20 229.40 355.60 208.00 Z" stroke-linecap="round"/>
</g>
</g>
</g>

  </svg>