<svg xmlns="http://www.w3.org/2000/svg" xmlns:xlink="http://www.w3.org/1999/xlink" width="1200px" height="1200px" viewBox="0 0 1200 1200">
  <g id="8b8cec3a-1e84-451b-a427-c46f5d31a209">
<rect style="stroke: rgb(193,193,193); stroke-width: 0; stroke-dasharray: none; stroke-linecap: butt; stroke-dashoffset: 0; stroke-linejoin: miter; stroke-miterlimit: 4; fill: rgb(252,252,252); fill-rule: nonzero; opacity: 0;" x="-600" y="-600" rx="0" ry="0" width="1200" height="1200" transform="matrix(1 0 0 1 600 600)"/>
</g>
<g id="PUJkZiKj56CaGHyeg3tPm">
<path style="stroke: rgb(114,114,114); stroke-width: 0; stroke-dasharray: none; stroke-linecap: butt; stroke-dashoffset: 0; stroke-linejoin: round; stroke-miterlimit: 4; fill: rgb(114,114,114); fill-rule: nonzero; opacity: 1;" vector-effect="non-scaling-stroke" transform="matrix(1 0 0 1 0 0)  translate(0, 0)" d="" stroke-linecap="round"/>
</g>
<g id="Vve7gfmUMN33HAC38DhMS">
<g>
		<g id="dTUEQa_nznVcIFR5_YCZJ">
<path style="stroke: rgb(193,193,193); stroke-width: 0; stroke-dasharray: none; stroke-linecap: butt; stroke-dashoffset: 0; stroke-linejoin: miter; stroke-miterlimit: 4; fill: rgb(0,0,0); fill-rule: nonzero; opacity: 1;" d="M344.84851,719.45262l4.67,-4.67c2.34,3.36 5.27,5.33 10.24,5.33c4.61,0 7.61,-2.03 7.61,-5.39c0,-9.82 -19.88,-4.67 -19.88,-19.64c0,-7.36 5.99,-11.67 13.71,-11.67c5.51,0 9.94,2.39 12.69,5.74l-4.67,4.68c-2.39,-2.7 -4.85,-4.02 -8.2,-4.02c-4.19,0 -6.65,1.74 -6.65,4.79c0,8.87 19.88,4.14 19.88,19.7c0,7.55 -5.69,12.22 -14.73,12.22c-6.64,0 -11.01,-2.4 -14.67,-7.07zM399.09851,684.01262h6.89v17.06h19.76v-17.06h6.88v41.91h-6.88v-18.56h-19.76v18.56h-6.89zM473.82851,684.01262h4.79l17.13,41.91h-7.43l-3.17,-8.08h-18.03l-3.23,8.08h-7.3zM482.74851,711.85262l-6.58,-16.71l-6.65,16.71zM519.21851,684.01262h15.57c7.9,0 13.89,5.14 13.89,13.05c0,7.9 -5.99,13.05 -13.89,13.05h-8.69v15.81h-6.88zM526.09851,689.99262v14.13h8.33c4.31,0 7.36,-2.75 7.36,-7.06c0,-4.31 -3.05,-7.07 -7.36,-7.07zM572.86851,684.01262h27.9v6.28h-21.02v11.2h19.29v6.05h-19.29v12.09h21.32v6.29h-28.2zM665.67851,690.29262h-13.65v-6.28h34.19v6.28h-13.65v35.63h-6.89zM710.16851,684.01262h27.9v6.28h-21.02v11.2h19.29v6.05h-19.29v12.09h21.32v6.29h-28.2zM760.52851,704.96262c0,-11.97 8.92,-21.55 21.13,-21.55c6.77,0 11.56,2.39 15.39,6.22l-4.67,4.67c-2.51,-2.69 -6.05,-4.31 -10.72,-4.31c-8.26,0 -14.07,6.17 -14.07,14.97c0,8.86 5.81,14.97 14.07,14.97c5.09,0 8.51,-1.67 11.02,-4.37l4.67,4.67c-3.83,3.89 -8.98,6.29 -15.69,6.29c-12.21,0 -21.13,-9.52 -21.13,-21.56zM821.47851,684.01262h6.89v17.06h19.76v-17.06h6.88v41.91h-6.88v-18.56h-19.76v18.56h-6.89z" stroke-linecap="round"/>
</g>
</g>
</g>
<g id="8PbMBl0-wS0y7zPjLgyKT">
<path style="stroke: rgb(193,193,193); stroke-width: 0; stroke-dasharray: none; stroke-linecap: butt; stroke-dashoffset: 0; stroke-linejoin: miter; stroke-miterlimit: 4; fill: rgb(114,114,114); fill-rule: nonzero; opacity: 1;" transform="matrix(1 0 0 1 0 0)  translate(0, 0)" d="" stroke-linecap="round"/>
</g>
<g id="0yGT9fdQMSEsSY9A25rm0">
<path style="stroke: rgb(193,193,193); stroke-width: 0; stroke-dasharray: none; stroke-linecap: butt; stroke-dashoffset: 0; stroke-linejoin: miter; stroke-miterlimit: 4; fill: rgb(193,193,193); fill-rule: nonzero; opacity: 1;" transform="matrix(1 0 0 1 0 0)  translate(0, 0)" d="" stroke-linecap="round"/>
</g>
<g id="RnUvvPmQ5oCWk-GLWOArK">
<path style="stroke: rgb(114,114,114); stroke-width: 0; stroke-dasharray: none; stroke-linecap: butt; stroke-dashoffset: 0; stroke-linejoin: round; stroke-miterlimit: 4; fill: rgb(114,114,114); fill-rule: nonzero; opacity: 1;" vector-effect="non-scaling-stroke" transform="matrix(1 0 0 1 0 0)  translate(0, 0)" d="" stroke-linecap="round"/>
</g>
<g id="gYqLit8ELkJUyNo7duD9-">
<g>
		<g id="d-bhb9R3MVeCGQr2cuzNh">
<path style="stroke: rgb(193,193,193); stroke-width: 0; stroke-dasharray: none; stroke-linecap: butt; stroke-dashoffset: 0; stroke-linejoin: miter; stroke-miterlimit: 4; fill: rgb(0,0,0); fill-rule: nonzero; opacity: 1;" d="M118.96862,879.27329c-4.69,-2.29 -8.28,-6.07 -10.78,-11.32c-2.49,-5.25 -3.74,-12.31 -3.74,-21.18v-42.66c0,-8.87 1.25,-15.94 3.74,-21.19c2.5,-5.25 6.09,-9.02 10.78,-11.31c4.69,-2.29 10.3,-3.44 16.83,-3.44c10.6,0 18.42,3.13 23.47,9.4c5.05,6.27 7.52,16.44 7.42,30.51h-17.28c0,-9.07 -1,-15.57 -2.99,-19.5c-1.99,-3.92 -5.58,-5.88 -10.78,-5.88c-4.99,0 -8.51,1.55 -10.55,4.66c-2.04,3.11 -3.06,7.67 -3.06,13.69v48.78c0,7.13 1.25,11.98 3.75,14.53c2.5,2.55 5.79,3.82 9.86,3.82c5.3,0 8.95,-1.99 10.94,-5.96c1.99,-3.98 2.93,-10.45 2.83,-19.42h17.28c0.1,14.17 -2.4,24.36 -7.5,30.58c-5.09,6.22 -12.89,9.33 -23.39,9.33c-6.53,0 -12.14,-1.15 -16.83,-3.44zM183.19862,769.70329h17.59v47.4h24.77v-47.4h17.59v111.48h-17.59v-49.4h-24.77v49.4h-17.59zM262.26862,769.70329h26.76c10.4,0 18.2,2.68 23.4,8.03c5.19,5.35 7.79,13.78 7.79,25.3c0,8.47 -1.48,15.17 -4.43,20.11c-2.96,4.95 -7.19,8.29 -12.69,10.02l17.58,48.02h-18.65l-15.45,-44.81h-6.73v44.81h-17.58zM279.84862,784.07329v38.23h9.02c4.89,0 8.41,-1.43 10.56,-4.28c2.14,-2.85 3.21,-6.63 3.21,-11.32v-7.49c0,-4.79 -1.12,-8.51 -3.37,-11.16c-2.24,-2.65 -5.71,-3.98 -10.4,-3.98zM335.35862,769.70329h17.59v111.48h-17.59zM375.65862,873.23329c-4.43,-6.32 -6.6,-15.19 -6.5,-26.61h16.67c0,7.55 0.97,13.05 2.91,16.51c1.93,3.47 5.4,5.2 10.39,5.2c4.29,0 7.3,-1.4 9.03,-4.2c1.73,-2.81 2.6,-6.1 2.6,-9.87c0,-4.18 -0.84,-7.62 -2.53,-10.32c-1.68,-2.7 -3.87,-5.07 -6.57,-7.11c-2.71,-2.04 -5.59,-3.98 -8.64,-5.81c-3.67,-2.24 -7.29,-4.71 -10.86,-7.42c-3.57,-2.7 -6.52,-6.14 -8.87,-10.32c-2.35,-4.18 -3.52,-9.53 -3.52,-16.06c0,-9.58 2.65,-16.82 7.95,-21.71c5.31,-4.89 12.29,-7.34 20.96,-7.34c9.79,0 17.2,2.83 22.25,8.48c5.05,5.66 7.57,14.56 7.57,26.69h-16.98c0,-7.44 -0.99,-12.79 -2.98,-16.06c-1.99,-3.26 -5.33,-4.89 -10.02,-4.89c-4.38,0 -7.41,1.4 -9.1,4.21c-1.68,2.8 -2.52,5.93 -2.52,9.4c0,3.57 0.79,6.57 2.37,9.02c1.58,2.45 3.67,4.59 6.27,6.43c2.6,1.83 5.38,3.62 8.33,5.35c2.96,1.63 5.89,3.44 8.8,5.43c2.91,1.99 5.61,4.33 8.1,7.03c2.5,2.7 4.49,5.94 5.97,9.71c1.47,3.77 2.21,8.36 2.21,13.77c0,7.13 -1.35,12.89 -4.05,17.28c-2.7,4.38 -6.32,7.59 -10.86,9.63c-4.53,2.04 -9.6,3.06 -15.21,3.06c-11.01,0 -18.74,-3.16 -23.17,-9.48zM474.82862,784.22329v96.96h-17.58v-96.96h-20.04v-14.52h57.5v14.52zM509.54862,769.70329h17.58v111.48h-17.58zM546.24862,769.70329h21.26l21.1,71.57l1.38,6.27h0.76v-77.84h16.52v111.48h-21.26l-21.41,-71.72l-1.22,-5.35h-0.77v77.07h-16.36zM642.74862,769.70329h26.76l13.46,77.99l13.15,-77.99h26.3v111.48h-15.75v-83.65l0.3,-9.18h-0.61l-1.37,9.03l-14.84,83.8h-15.14l-14.83,-83.96l-1.38,-8.87h-0.61l0.15,9.18v83.65h-15.59zM754.07862,879.27329c-4.69,-2.29 -8.29,-6.07 -10.79,-11.32c-2.49,-5.25 -3.74,-12.31 -3.74,-21.18v-42.66c0,-8.87 1.25,-15.94 3.74,-21.19c2.5,-5.25 6.1,-9.02 10.79,-11.31c4.69,-2.29 10.29,-3.44 16.82,-3.44c6.53,0 12.13,1.15 16.82,3.44c4.69,2.29 8.28,6.06 10.78,11.31c2.5,5.25 3.75,12.32 3.75,21.19v42.66c0,8.87 -1.25,15.93 -3.75,21.18c-2.5,5.25 -6.09,9.03 -10.78,11.32c-4.69,2.29 -10.29,3.44 -16.82,3.44c-6.53,0 -12.13,-1.15 -16.82,-3.44zM780.90862,864.36329c2.5,-2.55 3.75,-7.4 3.75,-14.53v-48.78c0,-6.02 -1.02,-10.58 -3.06,-13.69c-2.04,-3.11 -5.61,-4.66 -10.7,-4.66c-5,0 -8.54,1.55 -10.63,4.66c-2.09,3.11 -3.14,7.67 -3.14,13.69v48.78c0,7.13 1.25,11.98 3.75,14.53c2.5,2.55 5.84,3.82 10.02,3.82c4.18,0 7.52,-1.27 10.01,-3.82zM819.52862,769.70329h26.76c10.4,0 18.2,2.68 23.4,8.03c5.2,5.35 7.8,13.78 7.8,25.3c0,8.47 -1.48,15.17 -4.44,20.11c-2.95,4.95 -7.18,8.29 -12.69,10.02l17.59,48.02h-18.66l-15.45,-44.81h-6.72v44.81h-17.59zM837.11862,784.07329v38.23h9.02c4.89,0 8.41,-1.43 10.55,-4.28c2.14,-2.85 3.21,-6.63 3.21,-11.32v-7.49c0,-4.79 -1.12,-8.51 -3.36,-11.16c-2.25,-2.65 -5.71,-3.98 -10.4,-3.98zM923.97862,784.22329v96.96h-17.59v-96.96h-20.03v-14.52h57.5v14.52zM968.93862,879.27329c-4.69,-2.29 -8.29,-6.07 -10.78,-11.32c-2.5,-5.25 -3.75,-12.31 -3.75,-21.18v-42.66c0,-8.87 1.25,-15.94 3.75,-21.19c2.49,-5.25 6.09,-9.02 10.78,-11.31c4.69,-2.29 10.29,-3.44 16.82,-3.44c6.53,0 12.13,1.15 16.82,3.44c4.69,2.29 8.29,6.06 10.78,11.31c2.5,5.25 3.75,12.32 3.75,21.19v42.66c0,8.87 -1.25,15.93 -3.75,21.18c-2.49,5.25 -6.09,9.03 -10.78,11.32c-4.69,2.29 -10.29,3.44 -16.82,3.44c-6.53,0 -12.13,-1.15 -16.82,-3.44zM995.77862,864.36329c2.49,-2.55 3.74,-7.4 3.74,-14.53v-48.78c0,-6.02 -1.02,-10.58 -3.06,-13.69c-2.03,-3.11 -5.6,-4.66 -10.7,-4.66c-4.99,0 -8.54,1.55 -10.63,4.66c-2.09,3.11 -3.13,7.67 -3.13,13.69v48.78c0,7.13 1.25,11.98 3.74,14.53c2.5,2.55 5.84,3.82 10.02,3.82c4.18,0 7.52,-1.27 10.02,-3.82zM1034.38862,769.70329h21.26l21.1,71.57l1.38,6.27h0.76v-77.84h16.52v111.48h-21.26l-21.41,-71.72l-1.22,-5.35h-0.77v77.07h-16.36z" stroke-linecap="round"/>
</g>
</g>
</g>
<g id="rwMmSNEt3IcoL4MvbYKQW">
<path style="stroke: rgb(193,193,193); stroke-width: 0; stroke-dasharray: none; stroke-linecap: butt; stroke-dashoffset: 0; stroke-linejoin: miter; stroke-miterlimit: 4; fill: rgb(114,114,114); fill-rule: nonzero; opacity: 1;" transform="matrix(1 0 0 1 0 0)  translate(0, 0)" d="" stroke-linecap="round"/>
</g>
<g id="REcMrQdjYiojAaRXIwx5e">
<path style="stroke: rgb(193,193,193); stroke-width: 0; stroke-dasharray: none; stroke-linecap: butt; stroke-dashoffset: 0; stroke-linejoin: miter; stroke-miterlimit: 4; fill: rgb(193,193,193); fill-rule: nonzero; opacity: 1;" transform="matrix(1 0 0 1 0 0)  translate(0, 0)" d="" stroke-linecap="round"/>
</g>
<g id="ZDSxoGo1g2kTiksTuxPss">
<g style="">
		<g id="_001">
<path style="stroke: rgb(193,193,193); stroke-width: 0; stroke-dasharray: none; stroke-linecap: butt; stroke-dashoffset: 0; stroke-linejoin: miter; stroke-miterlimit: 4; fill: rgb(0,0,0); fill-rule: nonzero; opacity: 1;" transform="matrix(0.945537 0 0 0.945537 599.928604 394.051756) matrix(1 0 0 1 0 0)  translate(-164.405168, -218.118838)" d="M 159.64 9.76 C 159.64 7.81 159.57 6.34 159.65 4.88 C 159.82 1.97 161.72 -0.01 164.23 0.00 C 166.72 0.01 168.95 1.99 169.23 4.65 C 169.39 6.24 169.22 8.16 169.22 9.97 C 170.32 10.05 171.09 10.02 171.91 10.05 C 182.08 10.39 192.30 10.18 202.41 11.13 C 229.80 13.69 254.34 23.47 275.48 41.34 C 299.92 62.01 314.76 88.30 321.39 119.42 C 323.70 130.25 324.72 141.23 325.16 152.29 C 325.76 167.55 326.62 182.81 327.19 198.07 C 327.71 212.10 328.11 226.14 328.34 240.17 C 328.62 256.44 328.98 272.72 328.72 288.99 C 328.39 309.70 325.30 330.00 317.83 349.47 C 309.22 371.93 296.17 391.29 277.50 406.60 C 260.28 420.72 240.65 429.77 218.74 433.87 C 210.17 435.47 201.54 436.26 192.82 436.24 C 173.19 436.18 153.56 436.29 133.92 436.15 C 112.48 435.99 92.19 430.99 73.15 421.08 C 60.82 414.66 49.95 406.27 40.30 396.28 C 21.76 377.12 10.45 354.17 4.58 328.34 C 1.24 313.63 -0.02 298.69 0.00 283.63 C 0.02 269.34 -0.06 255.05 0.33 240.77 C 0.84 221.40 1.66 202.04 2.51 182.68 C 3.09 169.65 3.80 156.63 4.69 143.63 C 6.15 122.14 10.84 101.43 20.89 82.22 C 38.55 48.49 65.64 26.14 102.31 15.59 C 110.67 13.19 119.20 11.57 127.89 11.04 C 137.18 10.48 158.01 9.76 159.64 9.76 Z M 159.70 193.59 C 158.73 193.41 158.24 193.23 157.77 193.25 C 150.59 193.69 143.37 193.85 136.23 194.69 C 123.52 196.19 111.05 198.97 98.92 203.06 C 82.83 208.49 66.79 214.04 50.74 219.58 C 45.03 221.55 38.94 223.91 33.16 225.97 C 32.95 228.56 33.04 230.74 33.00 233.21 C 32.75 250.72 32.37 268.24 32.41 285.75 C 32.43 295.55 33.09 305.33 35.02 315.00 C 37.73 328.60 42.00 341.61 49.10 353.60 C 60.24 372.43 75.47 386.67 95.74 395.29 C 107.75 400.40 120.35 402.99 133.34 403.18 C 152.59 403.46 171.85 403.25 191.11 403.33 C 198.83 403.36 206.47 402.68 214.03 401.16 C 236.82 396.58 255.59 385.28 270.21 367.25 C 286.84 346.75 294.39 322.76 296.01 296.82 C 296.84 283.69 296.59 270.49 296.62 257.33 C 296.64 249.13 296.30 240.94 296.08 232.74 C 296.03 230.52 295.76 225.78 295.76 225.78 C 295.76 225.78 291.69 224.31 289.61 223.59 C 270.42 216.95 251.21 210.34 232.00 203.74 C 221.08 199.98 209.91 197.21 198.52 195.32 C 189.44 193.81 180.24 193.62 171.07 193.21 C 170.50 193.18 169.92 193.39 169.10 193.54 C 169.10 194.79 169.10 195.89 169.10 197.00 C 169.11 219.61 169.11 242.22 169.11 264.84 C 169.11 265.83 169.20 266.84 169.03 267.81 C 168.58 270.28 166.32 272.07 164.01 271.92 C 161.48 271.76 159.86 270.03 159.67 267.24 C 159.62 266.50 159.66 265.75 159.66 265.00 C 159.67 242.52 159.69 220.03 159.70 197.54 C 159.70 196.30 159.70 195.07 159.70 193.59 Z M 169.32 33.52 C 175.39 33.52 181.09 33.42 186.78 33.54 C 196.84 33.75 206.84 34.71 216.61 37.22 C 250.15 45.85 274.39 65.89 289.59 96.94 C 297.64 113.39 301.04 130.97 301.91 149.09 C 302.68 165.09 303.11 181.12 303.68 197.14 C 303.72 198.25 303.75 199.37 303.80 200.49 C 304.40 216.38 305.16 232.27 305.57 248.16 C 305.86 259.59 305.85 271.03 305.66 282.46 C 305.54 290.02 304.97 297.59 304.40 305.14 C 303.47 317.47 300.59 329.37 296.13 340.89 C 288.82 359.78 277.88 376.15 262.01 388.90 C 242.96 404.21 221.03 411.93 196.66 412.25 C 174.79 412.53 152.91 412.39 131.04 412.19 C 125.36 412.14 119.61 411.56 114.03 410.50 C 89.94 405.93 69.67 394.52 53.45 376.00 C 36.89 357.08 28.15 334.76 24.75 310.14 C 23.45 300.77 23.14 291.33 23.26 281.88 C 23.49 263.99 23.68 246.10 24.00 228.21 C 24.16 219.39 24.51 210.57 24.89 201.76 C 25.47 188.36 26.12 174.96 26.83 161.57 C 27.24 154.01 27.70 146.45 28.38 138.91 C 29.66 124.46 33.18 110.56 39.49 97.47 C 58.30 58.47 89.71 37.83 132.54 34.19 C 140.32 33.53 148.18 33.70 156.00 33.48 C 157.18 33.45 158.37 33.36 159.46 33.31 C 159.46 28.41 159.46 19.31 159.46 19.31 C 159.46 19.31 158.80 19.30 158.58 19.29 C 143.40 18.86 128.26 19.35 113.35 22.45 C 89.39 27.43 68.70 38.56 51.45 56.01 C 37.03 70.59 26.98 87.73 20.74 107.23 C 16.20 121.43 14.39 136.03 13.55 150.81 C 12.76 164.82 12.05 178.83 11.38 192.85 C 10.82 204.64 10.22 216.42 9.89 228.22 C 9.45 243.87 9.18 259.53 8.96 275.18 C 8.82 285.25 9.22 295.29 10.31 305.32 C 11.66 317.69 14.10 329.81 18.11 341.60 C 26.60 366.51 41.13 387.18 62.24 402.95 C 83.16 418.57 107.00 426.31 132.97 426.91 C 153.60 427.39 174.24 427.08 194.87 427.01 C 203.70 426.98 212.48 425.94 221.07 423.93 C 251.78 416.78 276.19 400.17 294.21 374.34 C 308.52 353.82 315.77 330.67 318.47 306.02 C 320.04 291.67 320.13 277.25 319.84 262.83 C 319.77 259.11 319.58 255.39 319.47 251.66 C 318.96 233.90 318.52 216.14 317.92 198.38 C 317.43 183.61 316.87 168.83 316.11 154.07 C 315.65 145.16 315.02 136.25 313.45 127.42 C 309.15 103.20 299.62 81.47 283.55 62.71 C 270.63 47.62 254.99 36.33 236.61 28.81 C 225.99 24.46 214.89 22.03 203.53 20.57 C 193.02 19.22 182.47 19.20 171.91 19.15 C 171.08 19.15 170.19 19.06 169.25 19.15 C 169.25 23.80 169.32 28.50 169.32 33.52 Z M 169.35 53.97 C 170.17 54.20 170.87 54.39 171.56 54.60 C 186.17 59.03 194.56 70.31 194.58 85.61 C 194.60 103.25 194.63 120.89 194.55 138.53 C 194.50 151.86 184.87 163.83 171.95 166.92 C 171.02 167.15 170.13 167.56 169.06 167.94 C 169.06 170.68 169.02 173.28 169.07 175.88 C 169.12 178.56 168.89 181.26 169.35 184.09 C 170.69 184.09 171.67 184.04 172.65 184.10 C 179.83 184.54 187.02 184.86 194.18 185.50 C 204.95 186.45 215.50 188.76 225.75 192.12 C 247.64 199.30 269.42 206.78 291.25 214.15 C 292.50 214.57 293.73 215.03 295.38 215.61 C 295.38 214.02 295.42 212.92 295.38 211.83 C 295.21 207.49 295.03 203.14 294.84 198.80 C 294.09 182.18 293.32 165.56 292.59 148.94 C 292.11 138.11 290.37 127.49 287.24 117.11 C 280.94 96.22 269.62 78.61 252.50 64.99 C 234.61 50.76 213.92 44.01 191.23 43.07 C 184.91 42.81 178.56 42.88 172.23 42.80 C 171.28 42.79 170.34 42.80 169.35 42.80 L 169.35 53.97 Z M 159.60 42.97 C 159.60 42.97 158.65 42.92 158.31 42.92 C 145.14 42.75 131.98 42.67 118.98 45.28 C 100.92 48.91 84.99 56.81 71.40 69.23 C 60.82 78.90 52.84 90.48 46.97 103.57 C 40.38 118.27 37.63 133.84 36.64 149.77 C 35.89 161.79 35.50 173.84 34.92 185.87 C 34.57 193.31 34.14 200.74 33.80 208.19 C 33.70 210.51 33.49 213.07 33.49 215.63 C 34.39 215.42 35.39 215.11 36.06 214.88 C 54.79 208.41 73.47 201.76 92.28 195.48 C 113.44 188.40 135.14 184.07 157.56 184.09 C 158.15 184.09 158.74 183.95 159.39 183.87 L 159.39 167.87 C 157.95 167.49 156.75 167.17 155.56 166.86 C 143.99 163.80 133.99 151.57 134.13 139.83 C 134.18 135.85 134.11 131.88 134.11 127.90 C 134.11 113.99 134.09 100.07 134.16 86.16 C 134.17 83.44 134.20 80.65 134.80 78.02 C 137.57 65.94 145.03 58.15 156.87 54.64 C 157.78 54.37 158.76 54.14 159.51 53.88 C 159.51 50.18 159.60 42.97 159.60 42.97 Z M 143.81 111.42 C 143.81 111.42 143.82 111.42 143.82 111.42 C 143.82 120.86 143.85 130.30 143.82 139.74 C 143.79 148.91 151.42 157.67 162.77 158.67 C 172.58 159.53 185.09 151.84 184.98 137.79 C 184.83 120.65 184.96 103.51 184.91 86.38 C 184.90 84.16 184.73 81.89 184.29 79.72 C 182.01 68.65 172.09 62.07 161.13 63.71 C 151.92 65.08 143.55 73.53 143.77 83.85 C 143.96 93.04 143.81 102.23 143.81 111.42 Z M 173.15 110.20 C 173.15 121.61 173.15 133.02 173.15 144.43 C 173.15 145.30 173.10 146.17 173.18 147.03 C 173.31 148.62 173.94 149.89 175.58 150.44 C 177.28 151.02 178.48 150.19 179.41 148.92 C 181.50 146.06 182.79 142.94 182.76 139.29 C 182.69 130.86 182.72 122.42 182.72 113.99 C 182.72 103.94 182.73 93.90 182.75 83.85 C 182.75 79.47 181.33 75.60 178.69 72.15 C 177.90 71.12 176.94 70.33 175.52 70.72 C 174.00 71.13 173.35 72.31 173.18 73.74 C 173.06 74.72 173.14 75.72 173.14 76.71 C 173.14 87.87 173.14 99.04 173.14 110.20 L 173.15 110.20 Z M 154.85 148.56 C 155.20 147.72 155.30 146.71 155.30 145.59 C 155.24 122.49 155.26 99.39 155.25 76.29 C 155.25 75.30 155.30 74.05 155.07 73.34 C 154.76 72.37 154.03 71.25 153.10 70.90 C 152.35 70.61 151.38 70.50 150.15 71.72 C 149.53 72.33 149.07 73.08 148.57 73.79 C 146.23 77.08 145.70 80.88 145.69 84.76 C 145.62 102.84 145.62 120.92 145.59 139.01 C 145.59 139.75 145.64 140.50 145.77 141.23 C 146.33 144.50 147.28 147.55 149.70 149.65 C 151.35 151.08 154.01 150.58 154.85 148.57 Z" stroke-linecap="round"/>
</g>
</g>
</g>

  </svg>